PathFileType	4	(X/Y/Z)	Formatted/subject19/trials/walk2/markers.trc
DataRate	CameraRate	NumFrames	NumMarkers	Units	OrigDataRate	OrigDataStartFrame	OrigNumFrames
200.00000000000426	200.00000000000426	4	64	m	200.00000000000426	133	213
Frame#	Time	CLAV			C7			RACR			RASH			RPSH			RLEL			RMEL			RUA1			RUA2			RUA3			RFAsuperior			RFAradius			RFAulna			RASI			RPSI			RCAL			RTOE			RMT5			RTH1			RTH2			RTH3			RTB1			RTB2			RTB3			RLFC			RMFC			RLMAL			RMMAL			RHJC			RKJC			REJC			RAJC			RSJC			LACR			LASH			LPSH			LLEL			LMEL			LUA1			LUA2			LUA3			LFAsuperior			LFAradius			LFAulna			LASI			LPSI			LCAL			LTOE			LMT5			LTH1			LTH2			LTH3			LTB1			LTB2			LTB3			LLFC			LMFC			LLMAL			LMMAL			LHJC			LKJC			LEJC			LAJC			LSJC			
		X1	Y1	Z1	X2	Y2	Z2	X3	Y3	Z3	X4	Y4	Z4	X5	Y5	Z5	X6	Y6	Z6	X7	Y7	Z7	X8	Y8	Z8	X9	Y9	Z9	X10	Y10	Z10	X11	Y11	Z11	X12	Y12	Z12	X13	Y13	Z13	X14	Y14	Z14	X15	Y15	Z15	X16	Y16	Z16	X17	Y17	Z17	X18	Y18	Z18	X19	Y19	Z19	X20	Y20	Z20	X21	Y21	Z21	X22	Y22	Z22	X23	Y23	Z23	X24	Y24	Z24	X25	Y25	Z25	X26	Y26	Z26	X27	Y27	Z27	X28	Y28	Z28	X29	Y29	Z29	X30	Y30	Z30	X31	Y31	Z31	X32	Y32	Z32	X33	Y33	Z33	X34	Y34	Z34	X35	Y35	Z35	X36	Y36	Z36	X37	Y37	Z37	X38	Y38	Z38	X39	Y39	Z39	X40	Y40	Z40	X41	Y41	Z41	X42	Y42	Z42	X43	Y43	Z43	X44	Y44	Z44	X45	Y45	Z45	X46	Y46	Z46	X47	Y47	Z47	X48	Y48	Z48	X49	Y49	Z49	X50	Y50	Z50	X51	Y51	Z51	X52	Y52	Z52	X53	Y53	Z53	X54	Y54	Z54	X55	Y55	Z55	X56	Y56	Z56	X57	Y57	Z57	X58	Y58	Z58	X59	Y59	Z59	X60	Y60	Z60	X61	Y61	Z61	X62	Y62	Z62	X63	Y63	Z63	X64	Y64	Z64	

134	3.385	1.826621647118806	1.399652968731526	-0.4997401399755733	1.711045971893985	1.475767241766882	-0.5294234604169513	1.757062546945979	1.435909531106243	-0.3365804479980749	1.818903613474934	1.398063904282382	-0.3180085590617456	1.724006801502483	1.413937499142055	-0.315656623753048	1.731742549522959	1.121560335488395	-0.2549008437028777	1.704025366986893	1.115647228060788	-0.3123648160068221	1.759477545445159	1.342146331881654	-0.2871026811086424	1.790962658344464	1.256437188092745	-0.3056592524110911	1.718253330978481	1.228517506913696	-0.2743497739882002	1.805996448725601	1.088380395279323	-0.3083567206990998	1.944171491437672	0.9493684452810951	-0.286011536642208	1.885143546731301	0.9125588760298592	-0.278869812314521	1.802954846738052	0.9650801720782829	-0.3710381531935628	1.641052146958622	0.9911373733495703	-0.4595860695242208	1.3156405480544	0.2422383370460438	-0.4264797607673338	1.430990678866571	0.06642682004037616	-0.4460780621109807	1.395229281406549	0.0571250663891695	-0.3417683636087383	1.733300300565726	0.8059740996376381	-0.3203282973758331	1.783174459310793	0.6526838226365784	-0.3332522100963417	1.70996790209115	0.5692274011899128	-0.3448687517643925	1.647128311719342	0.3374969710220393	-0.3966543455778083	1.568743976233115	0.3411540310221819	-0.3379198256760171	1.496795981365858	0.2380092004194547	-0.4013570069614079	1.706080603853938	0.4720374724291979	-0.3456243908069832	1.711631399558463	0.465398507967698	-0.4585535089385155	1.36847119387628	0.1822379566273807	-0.3589899845230359	1.373929085699911	0.1804195475774664	-0.4602330628348912	1.739729815041729	0.8592351422284724	-0.423529436644887	1.713127580547815	0.4621956618274417	-0.4043972785303744	1.723572559483706	1.112771431218479	-0.2845657661400076	1.353589044422651	0.1831038677520055	-0.4173655704321057	1.774449201906439	1.405499889794396	-0.3169067949663863	1.74000872146947	1.430973352312108	-0.7081481025916149	1.806938369808706	1.385228048411644	-0.7141556381007876	1.704449812878459	1.402371530860091	-0.7116155479673942	1.658890529151427	1.121643481132836	-0.739983033690639	1.640711994724664	1.130261096922101	-0.6781259100551854	1.715177974927908	1.338469287906829	-0.7453726155966299	1.659066325556741	1.28097002176574	-0.7115521437972063	1.721341756757022	1.224108901058069	-0.7414065432582434	1.694393618906066	1.055571432280789	-0.6868707996877398	1.728629691354002	0.8552062643857088	-0.7107855059352991	1.663166970797577	0.8566102496404642	-0.7326980480876293	1.824967483520761	0.9713185176436149	-0.6053082055878836	1.649690383251943	0.9959405161672428	-0.5565829812424476	1.840209090751623	0.05354911387777742	-0.5634964609858449	2.045360909387757	0.04977318977672775	-0.5249645493295892	2.041094462011505	0.01576955692788914	-0.6323542282705329	1.78792867117874	0.8011642361533573	-0.6798777895770061	1.892828758112288	0.7350949467533076	-0.6589077092941751	1.866387431533376	0.5931122432111166	-0.6456551663757788	1.973342592796212	0.3736699151320602	-0.5864410263972426	1.933378332046954	0.2773228181839056	-0.6352875995755853	1.955416220341136	0.1806861245552897	-0.5704418345626298	1.924676119400126	0.5065987275825845	-0.6247184147736812	1.916928812138585	0.505266688460424	-0.5117313455754215	1.924629041226422	0.0620646614271933	-0.622437860027342	1.91968734107308	0.06252145001125026	-0.5211529793961458	1.75525378180734	0.8615433314076617	-0.5753838344206502	1.925238386350449	0.5047614558593607	-0.5654699671276155	1.652173056619488	1.114932382405818	-0.7084756561438472	1.908843653112648	0.04972348406823723	-0.5656183733334672	1.762483958240211	1.392664033923658	-0.7130538740054282	
135	3.39	1.832950951048367	1.399992237451698	-0.5001919981626091	1.717393590257154	1.475985828700238	-0.5302534224788102	1.762940766842205	1.436362611997719	-0.3372507149312598	1.824762821971105	1.39858432559859	-0.3184794972249506	1.729847932548894	1.41438639323932	-0.3163900091901856	1.736632814903257	1.122033115451234	-0.256232811297685	1.709064945799281	1.116320601293874	-0.3137888269277173	1.765068063860749	1.342610660026915	-0.2878769826663249	1.796370174764426	1.256855141368321	-0.3065286548268092	1.723494384485781	1.229068854478502	-0.2754886842339347	1.810618668309087	1.087634389626344	-0.3094486512526232	1.946595714605208	0.9465736074138686	-0.2864688661466637	1.886993402858543	0.9106749848022093	-0.2794617126495869	1.809756840444511	0.965205540112973	-0.3716301384350006	1.647754807685534	0.9912230967659591	-0.4600078706316908	1.326294612210298	0.2505859930765137	-0.4255769246362743	1.435840480188164	0.07121126131259255	-0.4461643970253927	1.400029284434587	0.06264060198786146	-0.3418091603175567	1.741441877322516	0.8063818763454503	-0.3208633870196055	1.794225299331696	0.6540318159963988	-0.3333428792463862	1.722611606584299	0.5691423857904934	-0.3444955467013103	1.659078157662466	0.3383416524601772	-0.3960943193097685	1.580851310676946	0.3435294230505345	-0.3372651648660595	1.50667633132672	0.2420557579802884	-0.4008325602077339	1.720591420630086	0.4718935975463256	-0.3448909758504533	1.726027013027728	0.464949274268327	-0.4578073325643384	1.377249428784977	0.1889153721168514	-0.3584365274052531	1.382559344993478	0.1871912824879929	-0.4596891244361545	1.746625564634047	0.8593785854268162	-0.4242704983470758	1.727684039549403	0.461636707465175	-0.4036562216506205	1.728524051275812	1.113330847522441	-0.2859400441549855	1.362326347936045	0.1902153904281643	-0.4167936076528937	1.78029994202127	1.40598680418489	-0.3175006765550649	1.746854572294708	1.431030474393132	-0.7088560478022521	1.813835075979711	1.385331167890418	-0.7146428128681351	1.711326995403725	1.402397400942406	-0.712386165790589	1.66710170510528	1.121233269957981	-0.7408156120945628	1.648637652029656	1.129811864097513	-0.6790376821611478	1.722438896833554	1.338305315682668	-0.7461332059942957	1.666450505633884	1.280578498942437	-0.7124965920956801	1.729098734397266	1.223976442875816	-0.7420619134762163	1.703054387622017	1.055595457280492	-0.6875620855986334	1.739291331912401	0.8555425744811505	-0.7111406837197998	1.67387375746828	0.8562850093109554	-0.7332198187842246	1.831585113282813	0.9719066710541584	-0.605904661017725	1.656313915943803	0.9962172454921576	-0.5570021505371756	1.840498182742192	0.05364881252641691	-0.5636436605406747	2.045628529064889	0.04951210702252164	-0.5250345528907967	2.041333057124223	0.01539618820113591	-0.6323874558182513	1.794561478115588	0.8014043603816698	-0.6805527367051647	1.899182893996016	0.7349392547396718	-0.6594417779696058	1.872172665172638	0.593071263816727	-0.6461082697814993	1.977324790386799	0.37287104364916	-0.5865949005810253	1.936374572272471	0.2769552499091634	-0.6354736596329327	1.957185467528433	0.1801108932958477	-0.5705323819518489	1.930102815824894	0.5063450563478573	-0.6250566743370436	1.922251168900393	0.5051267991288138	-0.5120755237234955	1.92516643657048	0.06181673249827008	-0.6225300910776301	1.920022055561067	0.06238434631113632	-0.521255863066348	1.762032209491739	0.8619883394343824	-0.5761319611462843	1.930662353565209	0.504509239466034	-0.5657911882470749	1.660288455728493	1.114513797074377	-0.709330592794689	1.909125820121727	0.04968560348239526	-0.5657368561159968	1.769372196029877	1.392733646476718	-0.7136639921982495	
136	3.395	1.839242331572152	1.400343950435297	-0.5006037345878857	1.723716118774475	1.476234702851828	-0.5310423060076854	1.768768677113004	1.436807981011625	-0.3378833292307865	1.830564905788314	1.399087025328492	-0.3189128347287224	1.735634264251767	1.414827707879127	-0.3170930143255453	1.741458962474522	1.122493393635598	-0.2575585716750299	1.714053292182742	1.116984254005411	-0.3152117916764305	1.770597412716218	1.343061342021349	-0.2886246463921799	1.80172131641652	1.257261478170182	-0.3073703654604912	1.728674031069522	1.229607272955414	-0.2766168720062405	1.815155973813303	1.086853178266618	-0.3105221679704298	1.948845775509962	0.9437288858894729	-0.2868907106480721	1.88866945465159	0.9087715757618903	-0.280031866161803	1.816434832137581	0.9653855544827042	-0.3722077085026654	1.654360204073305	0.991362015855488	-0.4604643445865129	1.337441918815199	0.2583628997942132	-0.4246081950993245	1.441547407090263	0.07588553275318359	-0.446137092761754	1.405744068311173	0.06798779298417322	-0.3417260779705892	1.749501049239942	0.8068333105988246	-0.3213789992977661	1.805186468023671	0.6554900237241932	-0.3334914683466804	1.735198060939638	0.569195746143099	-0.3441703667710851	1.671230206540712	0.3393139741165853	-0.3955653978038416	1.593192247852244	0.3458854893746373	-0.3366237812964369	1.517013293937062	0.2459614394007349	-0.4002759394069151	1.735056766269385	0.4719252983985968	-0.3442364111562141	1.74033194734985	0.4647053764748253	-0.4571430898604562	1.386650783709185	0.1952221531325318	-0.3578049132274855	1.391796686882081	0.1935820471673613	-0.4590673733677069	1.753390612683424	0.8595701909171971	-0.4249755494874092	1.742165939369259	0.4612915644193997	-0.4029956910132728	1.733418063073064	1.113879282424479	-0.2873099115367279	1.371680218441494	0.1969131842780882	-0.4161398066780924	1.786094646760519	1.406460748069337	-0.3180603398608541	1.753688676157781	1.431145225569592	-0.7095259634058895	1.820714844911208	1.385485545984129	-0.7150926052161286	1.718189752051738	1.402485483138814	-0.7131271991806972	1.675312380615955	1.120886459969761	-0.7416700112670787	1.656563702471379	1.129409590481793	-0.679970177601548	1.729687740615097	1.338204276526484	-0.7468701516822286	1.673827493777057	1.280240015143313	-0.7134293930163608	1.736848448546188	1.223908585049792	-0.7427181415402958	1.711737591740691	1.055692671948104	-0.6882940261679491	1.750035857205691	0.8559884030186414	-0.7115678348573852	1.684666370237703	0.8560504071161074	-0.7338012509209542	1.838137232855931	0.972462928419945	-0.6064828611833762	1.662864814785319	0.9965114187625663	-0.5574553000225604	1.840758074907628	0.05370197190061556	-0.5637838727450859	2.045881617173771	0.04932416794330993	-0.5251652017540096	2.041541290873036	0.0150941062304377	-0.6324799593873752	1.801063685740483	0.8016308807702973	-0.6811960626001258	1.905386535976248	0.7347364631562965	-0.6599639332125267	1.877764045706388	0.592993851013874	-0.646551562633817	1.981132100956077	0.37205378779608	-0.5867717610766936	1.939226058506322	0.2765639906883511	-0.6356744725900967	1.958866020608562	0.1795328882559614	-0.5706473292926172	1.935309992005668	0.5060369046850139	-0.6253982972366333	1.927372426870181	0.5049306299026941	-0.512421998306876	1.9256523858675	0.06156714189785323	-0.6226418071732596	1.920335447308161	0.06224401398992091	-0.5213771632484477	1.768717526443759	0.8624251874686754	-0.5768406676500102	1.935869555678251	0.5042033135995093	-0.5661175392364517	1.668404202458884	1.114150587948331	-0.7102091907774876	1.909380200460913	0.04964130645496057	-0.5658709727972722	1.776244585883413	1.392859268724973	-0.7142401103482603	
137	3.4	1.845501704819544	1.400725653039928	-0.5009804492847559	1.73001642848706	1.476527601106918	-0.5317933426162609	1.774558050914955	1.437267750061995	-0.3384819418018467	1.836323307732893	1.39959625663837	-0.3193133301869994	1.741378980032112	1.41528355832288	-0.3177671286135419	1.7462280727775	1.122967236614006	-0.2588742033235942	1.718995156426081	1.117663916522377	-0.316628495139345	1.776078141259776	1.343522773223234	-0.2893471227527793	1.807025244943753	1.25767922453578	-0.3081853265984404	1.733801903597096	1.230158800353988	-0.2777319711650557	1.819611646159284	1.086062280792179	-0.3115755618702835	1.95092171173773	0.9408610244150836	-0.2872808351661971	1.890172740681641	0.9068766308685282	-0.2805822993566358	1.822978482619104	0.9655997603438022	-0.3727562909915483	1.660873411018454	0.9915648825225689	-0.4609603363185726	1.349094788623042	0.2654910505261557	-0.4236133969626172	1.448064745877784	0.08027990852344483	-0.4460012518134396	1.412295400833091	0.07301844254029823	-0.3415324122594396	1.757428689410508	0.8073420796602315	-0.321885374041883	1.816009536231745	0.6570692707075947	-0.3336639787465266	1.747681461570388	0.569398365464229	-0.3438720602432052	1.683574201860371	0.340388108728924	-0.3950284297317392	1.605729506017932	0.3481915292208977	-0.3359815676357781	1.52779881723022	0.249656964152469	-0.3996792382899556	1.749428792230404	0.4721438030524869	-0.3436245604943174	1.754539073542313	0.4646581989278467	-0.4565215208601409	1.396650325889851	0.2010637425390608	-0.3571184659634447	1.401645432492059	0.1994805288570249	-0.4583893820507465	1.760014465518752	0.8598052349145842	-0.4256614963599104	1.756548543178312	0.4611621999566948	-0.4023758362470349	1.738260286149837	1.114442434541112	-0.2886709032177466	1.381639921986797	0.2030896990490578	-0.4154324478164263	1.791846637421462	1.406944973112479	-0.3185890120599132	1.760507628417797	1.431325225359632	-0.7101605567266608	1.827575120700685	1.385700127300215	-0.7155087381565495	1.725035246783841	1.402642413119487	-0.7138388404572155	1.683516466045109	1.120612016685735	-0.7425426956738926	1.664486928133443	1.129063767987297	-0.6809190740093618	1.736919920372345	1.338174460596183	-0.7475833993932703	1.681193767532426	1.279963657896027	-0.7143477941886469	1.744585577216094	1.223913592965061	-0.7433748545419882	1.720438907250609	1.055873160972251	-0.6890637139330142	1.760857695585717	0.8565554753975955	-0.7120638031475278	1.695538953135141	0.855918011719629	-0.7344368669868039	1.844650104190725	0.9730137029829808	-0.6070238834053457	1.669363479237627	0.9968532339915992	-0.5579450890915394	1.840993962985026	0.05372087449687182	-0.5639185677445594	2.046120810705614	0.04919287302820848	-0.5253347880524389	2.041727432032845	0.0148484499793896	-0.6326108412630848	1.807452390817825	0.8018661043010699	-0.6818186727793464	1.911447356551085	0.7344984794479547	-0.6604744995381554	1.88315348930445	0.5928954215096944	-0.6469877353239408	1.984749550871455	0.3712305195834255	-0.5869637180616619	1.941927602842571	0.2761571012033016	-0.6358842538658469	1.960454899921635	0.1789602100995831	-0.5707782177496059	1.940278291313467	0.5056841963732825	-0.625739999140521	1.932261918942709	0.5046891345459503	-0.5127682304103947	1.926095648152419	0.06131996740228735	-0.6227657517611347	1.92062846366886	0.06210422801959914	-0.5215098831420832	1.775322832119461	0.8628794299256217	-0.5775242062077162	1.940833439384558	0.5038547647744034	-0.566445999028637	1.676515581323247	1.113851963218856	-0.7111075654299547	1.909611834224356	0.04959339703210486	-0.5660144642832171	1.783098450389254	1.393048843774324	-0.7147844200294633	
